<svg width="13" height="12" viewBox="0 0 13 12" fill="none" xmlns="http://www.w3.org/2000/svg">
<path d="M12.55 2.50489L10.495 0.449893C10.2268 0.197965 9.87533 0.0534125 9.50749 0.0437325C9.13965 0.0340524 8.78108 0.15992 8.49999 0.397394L1.74999 7.14739C1.50757 7.39187 1.35662 7.7123 1.32249 8.05489L0.999994 11.1824C0.98989 11.2922 1.00414 11.403 1.04174 11.5067C1.07933 11.6104 1.13935 11.7045 1.21749 11.7824C1.28757 11.8519 1.37069 11.9069 1.46206 11.9442C1.55344 11.9815 1.65129 12.0005 1.74999 11.9999H1.81749L4.94499 11.7149C5.28759 11.6808 5.60802 11.5298 5.85249 11.2874L12.6025 4.53739C12.8645 4.26062 13.0061 3.89127 12.9962 3.51029C12.9864 3.12932 12.8259 2.76777 12.55 2.50489ZM9.99999 5.00989L7.98999 2.99989L9.45249 1.49989L11.5 3.54739L9.99999 5.00989Z" fill="#303E3D"/>
</svg>
